# AST/ASF file generated using VICON BodyLanguage
# -----------------------------------------------
:version 1.10
:name VICON
:units
  mass 1.0
  length 0.45
  angle deg
:documentation
   .ast/.asf automatically generated from VICON data using
   VICON BodyBuilder and BodyLanguage model FoxedUp or BRILLIANT.MOD
:root
   order TX TY TZ RX RY RZ
   axis XYZ
   position 0 0 0  
   orientation 0 0 0 
:bonedata
  begin
     id 1 
     name lhipjoint
     direction 0.521689 -0.742065 0.420928 
     length 2.47002 
     axis 0 0 0  XYZ
  end
  begin
     id 2 
     name lfemur
     direction 0.34202 -0.939693 0  
     length 7.24654  
     axis 0 0 20  XYZ
    dof rx ry rz
    limits (-160.0 20.0)
           (-70.0 70.0)
           (-60.0 70.0)
  end
  begin
     id 3 
     name ltibia
     direction 0.34202 -0.939693 0   
     length 8.04849   
     axis 0 0 20   XYZ
    dof rx
    limits (-10.0 170.0)
  end
  begin
     id 4 
     name lfoot
     direction 0.0745411 -0.2048 0.975961   
     length 1.72367   
     axis -90 7.62852e-016 20   XYZ
    dof rx rz
    limits (-45.0 90.0)
           (-70.0 20.0)
  end
  begin
     id 5 
     name ltoes
     direction 1.53556e-011 -4.21901e-011 1   
     length 0.87311   
     axis -90 7.62852e-016 20   XYZ
    dof rx
    limits (-90.0 20.0)
  end
  begin
     id 6 
     name rhipjoint
     direction -0.52849 -0.738415 0.418857   
     length 2.48223  
     axis 0 0 0  XYZ 
  end
  begin
     id 7 
     name rfemur
     direction -0.34202 -0.939693 0   
     length 7.15571   
     axis 0 0 -20   XYZ
    dof rx ry rz
    limits (-160.0 20.0)
           (-70.0 70.0)
           (-70.0 60.0)
  end
  begin
     id 8 
     name rtibia
     direction -0.34202 -0.939693 0   
     length 7.81659   
     axis 0 0 -20   XYZ
    dof rx
    limits (-10.0 170.0)
 end
 begin
     id 9 
     name rfoot
     direction -0.0917348 -0.252039 0.963359   
     length 1.84382  
     axis -90 -7.62852e-016 -20   XYZ
    dof rx rz
    limits (-45.0 90.0)
           (-20.0 70.0)
  end
  begin
     id 10 
     name rtoes
     direction -1.53551e-011 -4.21879e-011 1   
     length 0.927771   
     axis -90 -7.62852e-016 -20   XYZ
    dof rx
    limits (-90.0 20.0)
  end
  begin
     id 11 
     name lowerback
     direction 0.00583058 0.999822 0.0179296   
     length 2.1429   
     axis 0 0 0   XYZ
    dof rx ry rz
    limits (-20.0 45.0)
           (-30.0 30.0)
           (-30.0 30.0)
  end
  begin
     id 12 
     name upperback
     direction -0.0137999 0.999752 -0.0175071   
     length 2.14252   
     axis 0 0 0   XYZ
    dof rx ry rz
    limits (-20.0 45.0)
           (-30.0 30.0)
           (-30.0 30.0)
  end
  begin
     id 13 
     name thorax
     direction -0.0158036 0.99955 -0.0254909   
     length 2.1383   
     axis 0 0 0   XYZ
    dof rx ry rz
    limits (-20.0 45.0)
           (-30.0 30.0)
           (-30.0 30.0)
  end
  begin
     id 14 
     name lowerneck
     direction -0.0101179 0.999403 -0.0330262   
     length 1.65808   
     axis 0 0 0   XYZ
    dof rx ry rz
    limits (-20.0 45.0)
           (-30.0 30.0)
           (-30.0 30.0)
  end
  begin
     id 15 
     name upperneck
     direction 0.0497734 0.995978 -0.074501   
     length 1.5897   
     axis 0 0 0   XYZ
    dof rx ry rz
    limits (-20.0 45.0)
           (-30.0 30.0)
           (-30.0 30.0)
  end
  begin
     id 16
     name head
     direction 0.0189524 0.999519 -0.0245438  
     length 1.74024  
     axis 0 0 0   XYZ
    dof rx ry rz
    limits (-20.0 45.0)
           (-30.0 30.0)
           (-30.0 30.0)
  end
  begin
     id 17 
     name lclavicle
     direction 0.945604 0.324422 0.0241537  
     length 3.59089  
     axis 0 0 0   XYZ
    dof ry rz
    limits (-20.0 10.0)
           (0.0 20.0)
  end
  begin
     id 18 
     name lhumerus
     direction 1 -4.48964e-011 -2.63524e-027   
     length 5.2391   
     axis 180 -30 -90   XYZ
    dof rx ry rz
    limits (-60.0 90.0)
           (-90.0 90.0)
           (-90.0 90.0)
  end
  begin
     id 19
     name lradius
     direction 1 -4.48969e-011 3.86978e-028   
     length 3.31467   
     axis 180 -30 -90   XYZ
    dof rx
    limits (-10.0 170.0)
  end
  begin
     id 20
     name lwrist
     direction 1 -4.48963e-011 7.20928e-028   
     length 1.65734   
     axis -5.52449e-016 90 90   XYZ
    dof ry
    limits (-180.0 0.0)
 end
  begin
     id 21 
     name lhand
     direction 1 -4.48964e-011 1.44186e-027   
     length 0.9659   
     axis -9.20027e-016 90 90   XYZ
    dof rx rz
    limits (-90.0 90.0)
           (-45.0 45.0)
  end
  begin
     id 22 
     name lfingers
     direction 1 -4.48965e-011 2.88371e-027   
     length 0.778733   
     axis -1.84005e-015 90 90   XYZ
    dof rx
    limits (0.0 90.0)
  end
  begin
     id 23
     name lthumb
     direction 0.707107 -6.34931e-011 0.707107   
     length 1.11811   
     axis -90 45 2.85299e-015   XYZ
    dof rx rz
    limits (-45.0 45.0)
           (-45.0 45.0)
  end
  begin
     id 24 
     name rclavicle
     direction -0.923762 0.370785 0.0958234   
     length 3.54196  
     axis 0 0 0   XYZ 
    dof ry rz
    limits (-10.0 20.0)
           (-20.0 0.0)
  end
  begin
     id 25 
     name rhumerus
     direction -1 -4.48966e-011 1.18702e-017  
     length 5.30252   
     axis 180 30 90   XYZ
    dof rx ry rz
    limits (-90.0 60.0)
           (-90.0 90.0)
           (-90.0 90.0)
  end
  begin
     id 26 
     name rradius
     direction -1 -4.48966e-011 4.46736e-027   
     length 3.67875   
     axis 180 30 90   XYZ
    dof rx
    limits (-10.0 170.0)
  end
  begin
     id 27 
     name rwrist
     direction -1 -4.48966e-011 7.20928e-028   
     length 1.83937   
     axis -5.52449e-016 -90 -90   XYZ
    dof ry
    limits (-180.0 0.0)
  end
  begin
     id 28
     name rhand
     direction -1 -4.48973e-011 1.44186e-027   
     length 0.594811   
     axis -9.20027e-016 -90 -90   XYZ
    dof rx rz
    limits (-90.0 90.0)
           (-45.0 45.0)
  end
  begin
     id 29
     name rfingers
     direction -1 -4.48963e-011 2.88371e-027   
     length 0.479552   
     axis -1.84005e-015 -90 -90   XYZ
    dof rx
    limits (0.0 90.0)
  end
  begin
     id 30
     name rthumb
     direction -0.707107 -6.34932e-011 0.707107   
     length 0.688544   
     axis -90 -45 -2.85299e-015   XYZ
    dof rx rz
    limits (-45.0 45.0)
           (-45.0 45.0)
  end
:hierarchy
  begin
    root lhipjoint rhipjoint lowerback
    lhipjoint lfemur
    lfemur ltibia
    ltibia lfoot
    lfoot ltoes
    rhipjoint rfemur
    rfemur rtibia
    rtibia rfoot
    rfoot rtoes
    lowerback upperback
    upperback thorax
    thorax lowerneck lclavicle rclavicle
    lowerneck upperneck
    upperneck head
    lclavicle lhumerus
    lhumerus lradius
    lradius lwrist
    lwrist lhand lthumb
    lhand lfingers
    rclavicle rhumerus
    rhumerus rradius
    rradius rwrist
    rwrist rhand rthumb
    rhand rfingers
  end

#!OML:ASF E:\acrobat2\Project_11_07_03\Capture day 1\Session 1\Acrobat.ASF
:FULLY-SPECIFIED
:DEGREES
516
root 5.21854 27.9218 0.53523 3.43971 2.43724 -1.82402
lowerback -0.0256879 0.88008 1.38649
upperback 0.978441 1.18696 -2.30652
thorax 1.09474 0.618275 -3.1334
lowerneck 4.2405 -2.01495 -2.25338
upperneck 6.99233 -2.80717 1.3457
head 1.51041 -1.43396 0.789676
rclavicle -3.97569e-015 5.56597e-015
rhumerus -38.1955 2.74158 -85.1543
rradius 40.3696
rwrist 5.55563
rhand 0.189521 -16.5003
rfingers 7.12502
rthumb 25.7719 -44.7749
lclavicle -3.97569e-015 5.56597e-015
lhumerus -25.2222 -10.6352 82.0662
lradius 27.4372
lwrist 5.10034
lhand -14.3018 -11.2859
lfingers 7.12502
lthumb 11.8381 18.3595
rfemur -7.34542 -1.9154 25.4439
rtibia 17.0728
rfoot -19.6449 -13.5666
rtoes -15.7131
lfemur -13.7693 1.43364 -10.0548
ltibia 26.3077
lfoot 357.066 -15.0314
ltoes 35.3954
517
root 5.22701 27.9334 0.555872 3.42007 2.42027 -1.7832
lowerback -0.146324 0.951504 1.52875
upperback 0.933856 1.28089 -2.34917
thorax 1.1271 0.666764 -3.25482
lowerneck 4.09324 -2.02497 -2.29527
upperneck 7.10779 -2.82426 1.44578
head 1.57527 -1.44186 0.826531
rclavicle 2.48481e-015 1.66979e-014
rhumerus -38.3589 2.25593 -84.956
rradius 39.6289
rwrist 6.00484
rhand 0.531739 -16.9867
rfingers 7.12502
rthumb 26.0996 -45.2133
lclavicle 2.48481e-015 1.66979e-014
lhumerus -25.3741 -9.5561 81.8875
lradius 27.5986
lwrist 5.34024
lhand -15.0767 -10.8917
lfingers 7.12502
lthumb 11.0908 18.7953
rfemur -6.96174 -1.75687 25.2936
rtibia 16.6695
rfoot -19.606 -13.7573
rtoes -16.0579
lfemur -13.6954 1.68608 -10.3387
ltibia 26.1391
lfoot 357.751 -15.6488
ltoes 36.3604
518
root 5.23783 27.9462 0.577414 3.4122 2.36469 -1.74527
lowerback -0.273739 1.02335 1.67116
upperback 0.88017 1.37481 -2.37885
thorax 1.15419 0.71499 -3.36264
lowerneck 3.92684 -1.98202 -2.25819
upperneck 7.16404 -2.76123 1.40922
head 1.61887 -1.40954 0.807392
rclavicle -1.83876e-014 4.53229e-014
rhumerus -38.5225 1.83409 -84.7538
rradius 38.8689
rwrist 6.36653
rhand 0.842362 -17.4811
rfingers 7.12502
rthumb 26.397 -45.6634
lclavicle -1.83876e-014 4.53229e-014
lhumerus -25.5791 -8.52225 81.7508
lradius 27.784
lwrist 5.71569
lhand -15.7831 -10.5084
lfingers 7.12502
lthumb 10.4094 19.2139
rfemur -6.56835 -1.57315 25.1063
rtibia 16.2206
rfoot -19.5614 -13.9059
rtoes -16.3121
lfemur -13.534 1.87253 -10.6497
ltibia 25.7996
lfoot 358.089 -16.0555
ltoes 36.8356
519
root 5.25061 27.9598 0.600276 3.41877 2.25083 -1.70983
lowerback -0.42383 1.09758 1.80555
upperback 0.826927 1.4713 -2.38825
thorax 1.19443 0.764477 -3.44422
lowerneck 3.73216 -1.9264 -2.19616
upperneck 7.19066 -2.67586 1.28966
head 1.65553 -1.36661 0.757991
rclavicle 4.37326e-015 4.13472e-014
rhumerus -38.644 1.5104 -84.5488
rradius 38.0612
rwrist 6.59474
rhand 1.07538 -17.9431
rfingers 7.12502
rthumb 26.62 -46.0918
lclavicle 4.37326e-015 4.13472e-014
lhumerus -25.79 -7.55285 81.6641
lradius 27.9319
lwrist 6.24759
lhand -16.4031 -10.1612
lfingers 7.12502
lthumb 9.81129 19.5903
rfemur -6.18118 -1.33881 24.8852
rtibia 15.7312
rfoot -19.4813 -14.042
rtoes -16.5595
lfemur -13.2871 2.00559 -10.9777
ltibia 25.3164
lfoot 357.947 -16.1965
ltoes 36.7249
520
root 5.26477 27.9734 0.623923 3.44531 2.07559 -1.68313
lowerback -0.598074 1.17384 1.93344
upperback 0.775072 1.56968 -2.37128
thorax 1.24931 0.814909 -3.49396
lowerneck 3.52001 -1.89748 -2.14171
upperneck 7.20039 -2.62393 1.13035
head 1.69008 -1.34123 0.697276
rclavicle -1.36167e-014 1.98785e-014
rhumerus -38.7042 1.29221 -84.3377
rradius 37.1975
rwrist 6.65294
rhand 1.17253 -18.3335
rfingers 7.12502
rthumb 26.713 -46.468
lclavicle -1.36167e-014 1.98785e-014
lhumerus -25.9706 -6.61971 81.618
lradius 28.0045
lwrist 6.91006
lhand -16.9022 -9.88059
lfingers 7.12502
lthumb 9.32971 19.893
rfemur -5.82099 -1.03821 24.6443
rtibia 15.2156
rfoot -19.3524 -14.1947
rtoes -16.8985
lfemur -12.9768 2.10387 -11.3052
ltibia 24.7387
lfoot 357.337 -16.0493
ltoes 36.1316
521
root 5.27984 27.9863 0.647698 3.49391 1.84657 -1.65738
lowerback -0.791019 1.25411 2.04794
upperback 0.72195 1.67266 -2.33426
thorax 1.31308 0.867524 -3.51445
lowerneck 3.34 -1.90495 -2.13741
upperneck 7.20115 -2.62348 0.99801
head 1.71875 -1.34259 0.653556
rclavicle 5.36719e-015 -2.38542e-014
rhumerus -38.7093 1.14591 -84.1167
rradius 36.2782
rwrist 6.553
rhand 1.10314 -18.6141
rfingers 7.12502
rthumb 26.6466 -46.7587
lclavicle 5.36719e-015 -2.38542e-014
lhumerus -26.1416 -5.72066 81.5997
lradius 28.0463
lwrist 7.66326
lhand -17.2633 -9.68093
lfingers 7.12502
lthumb 8.98125 20.1079
rfemur -5.50071 -0.671382 24.3785
rtibia 14.703
rfoot -19.1943 -14.3623
rtoes -17.3226
lfemur -12.6286 2.18448 -11.6369
ltibia 24.1176
lfoot 356.38 -15.6256
ltoes 35.1737
522
root 5.29581 27.9977 0.671063 3.56526 1.57212 -1.62761
lowerback -0.999718 1.34496 2.14847
upperback 0.663827 1.78909 -2.28526
thorax 1.38103 0.926664 -3.51347
lowerneck 3.21762 -1.91348 -2.1787
upperneck 7.16863 -2.62821 0.905412
head 1.72848 -1.34717 0.630511
rclavicle -1.98785e-016 1.43125e-014
rhumerus -38.7192 0.971604 -83.8581
rradius 35.3527
rwrist 6.4001
rhand 0.933275 -18.777
rfingers 7.12502
rthumb 26.484 -46.9462
lclavicle -1.98785e-016 1.43125e-014
lhumerus -26.3308 -4.88188 81.6085
lradius 28.0936
lwrist 8.44572
lhand -17.4705 -9.56885
lfingers 7.12502
lthumb 8.78138 20.2285
rfemur -5.23027 -0.252659 24.0813
rtibia 14.2179
rfoot -19.0261 -14.5328
rtoes -17.7614
lfemur -12.2743 2.26432 -11.9805
ltibia 23.5128
lfoot 355.218 -14.9871
ltoes 33.7559
523
root 5.31255 28.0071 0.692954 3.65756 1.27904 -1.59514
lowerback -1.2139 1.44415 2.24014
upperback 0.598024 1.9161 -2.23012
thorax 1.44464 0.990806 -3.50018
lowerneck 3.16785 -1.91369 -2.24192
upperneck 7.07694 -2.62489 0.839279
head 1.70743 -1.34777 0.620285
rclavicle 2.5842e-015 -3.65764e-014
rhumerus -38.711 0.703497 -83.5362
rradius 34.3973
rwrist 6.30533
rhand 0.783378 -18.825
rfingers 7.12502
rthumb 26.3405 -47.0157
lclavicle 2.5842e-015 -3.65764e-014
lhumerus -26.5495 -4.12778 81.6458
lradius 28.1527
lwrist 9.19114
lhand -17.5323 -9.55384
lfingers 7.12502
lthumb 8.72168 20.246
rfemur -5.01614 0.183359 23.7539
rtibia 13.7707
rfoot -18.8446 -14.7082
rtoes -18.2438
lfemur -11.9461 2.33768 -12.3385
ltibia 22.9716
lfoot 354.035 -14.2304
ltoes 31.8842
524
root 5.32977 28.0142 0.712993 3.7608 0.994701 -1.57471
lowerback -1.41914 1.54506 2.34022
upperback 0.523922 2.04479 -2.17185
thorax 1.49516 1.05553 -3.48802
lowerneck 3.17947 -1.89757 -2.29927
upperneck 6.91856 -2.60143 0.780515
head 1.65418 -1.33782 0.612226
rclavicle -2.19657e-014 -1.82882e-014
rhumerus -38.7108 0.306154 -83.1442
rradius 33.4331
rwrist 6.36193
rhand 0.734793 -18.7629
rfingers 7.12502
rthumb 26.294 -46.9606
lclavicle -2.19657e-014 -1.82882e-014
lhumerus -26.8293 -3.47969 81.7102
lradius 28.2617
lwrist 9.86091
lhand -17.484 -9.62251
lfingers 7.12502
lthumb 8.76827 20.1754
rfemur -4.84593 0.601238 23.4173
rtibia 13.3583
rfoot -18.6387 -14.8921
rtoes -18.8376
lfemur -11.6551 2.39418 -12.6935
ltibia 22.5098
lfoot 353.024 -13.4737
ltoes 29.9309
